<?xml version="1.0" encoding="UTF-8"?>
<svg version="1.1" xmlns="http://www.w3.org/2000/svg" width="500" height="500">
<path d="M0 0 C165 0 330 0 500 0 C500 165 500 330 500 500 C335 500 170 500 0 500 C0 335 0 170 0 0 Z " fill="#FEFEFE" transform="translate(0,0)"/>
<path d="M0 0 C0.89807373 -0.01401855 1.79614746 -0.02803711 2.72143555 -0.04248047 C7.79685889 -0.00642883 12.29262986 0.62526939 17.20996094 1.88818359 C25.41384554 3.68495644 33.33590633 3.72168558 41.70543861 3.60049438 C44.43969838 3.5614076 47.17350927 3.54245575 49.90800476 3.52807617 C56.70410439 3.48843034 63.49977728 3.41630245 70.29559326 3.34387207 C127.33367035 2.74744241 127.33367035 2.74744241 148.625 9.625 C149.60766846 9.92873535 150.59033691 10.2324707 151.6027832 10.54541016 C176.7197049 18.51688264 198.15693046 31.87290898 210.84375 55.875 C219.40653478 73.43968672 222.24986066 88.9802045 222.30273438 108.34960938 C222.31238949 110.47566646 222.34349164 112.60073277 222.375 114.7265625 C222.47410289 127.47681723 220.82667413 139.97627574 216.375 152 C216.12081299 152.69818848 215.86662598 153.39637695 215.60473633 154.11572266 C211.13742435 165.89038573 204.49010119 176.01745661 196.0625 185.375 C195.37671875 186.14328125 194.6909375 186.9115625 193.984375 187.703125 C175.04907836 207.76051329 146.14400169 219.34215589 119.0625 222.375 C118.24062698 222.46741974 117.41875397 222.55983948 116.57197571 222.65505981 C108.05757795 223.47942628 99.60883966 223.46469125 91.06615257 223.38903427 C88.41888081 223.36666714 85.77168417 223.35281272 83.12434387 223.34133911 C75.60582368 223.30807399 68.08742765 223.26639418 60.5690918 223.20361328 C55.94517143 223.16560656 51.32137475 223.14283664 46.69732094 223.12930679 C44.95408986 223.12134751 43.21087353 223.1078778 41.46773338 223.08837509 C31.7399792 222.98141118 22.76124959 223.44896697 13.2711792 225.68547058 C8.22240597 226.77042718 3.27150719 226.86576324 -1.875 226.8125 C-2.93058105 226.80565186 -3.98616211 226.79880371 -5.07373047 226.79174805 C-36.31502629 226.17267235 -65.28934011 216.30486728 -88.125 194.625 C-106.1718034 175.82744958 -115.7413299 150.19001994 -116.9375 124.375 C-116.98849854 123.27865234 -116.98849854 123.27865234 -117.04052734 122.16015625 C-118.37584492 88.70265599 -108.79327441 59.12414774 -86.79296875 33.91796875 C-64.12103019 9.90001529 -32.21396585 0.33503588 0 0 Z " fill="#A5A5A5" transform="translate(201.9375,139.625)"/>
<path d="M0 0 C0.89807373 -0.01401855 1.79614746 -0.02803711 2.72143555 -0.04248047 C7.79685889 -0.00642883 12.29262986 0.62526939 17.20996094 1.88818359 C25.41384554 3.68495644 33.33590633 3.72168558 41.70543861 3.60049438 C44.43969838 3.5614076 47.17350927 3.54245575 49.90800476 3.52807617 C56.70410439 3.48843034 63.49977728 3.41630245 70.29559326 3.34387207 C127.33367035 2.74744241 127.33367035 2.74744241 148.625 9.625 C149.60766846 9.92873535 150.59033691 10.2324707 151.6027832 10.54541016 C176.7197049 18.51688264 198.15693046 31.87290898 210.84375 55.875 C219.40653478 73.43968672 222.24986066 88.9802045 222.30273438 108.34960938 C222.31238949 110.47566646 222.34349164 112.60073277 222.375 114.7265625 C222.47410289 127.47681723 220.82667413 139.97627574 216.375 152 C216.12081299 152.69818848 215.86662598 153.39637695 215.60473633 154.11572266 C211.13742435 165.89038573 204.49010119 176.01745661 196.0625 185.375 C195.37671875 186.14328125 194.6909375 186.9115625 193.984375 187.703125 C175.04907836 207.76051329 146.14400169 219.34215589 119.0625 222.375 C118.24062698 222.46741974 117.41875397 222.55983948 116.57197571 222.65505981 C108.05757795 223.47942628 99.60883966 223.46469125 91.06615257 223.38903427 C88.41888081 223.36666714 85.77168417 223.35281272 83.12434387 223.34133911 C75.60582368 223.30807399 68.08742765 223.26639418 60.5690918 223.20361328 C55.94517143 223.16560656 51.32137475 223.14283664 46.69732094 223.12930679 C44.95408986 223.12134751 43.21087353 223.1078778 41.46773338 223.08837509 C31.7399792 222.98141118 22.76124959 223.44896697 13.2711792 225.68547058 C8.22240597 226.77042718 3.27150719 226.86576324 -1.875 226.8125 C-2.93058105 226.80565186 -3.98616211 226.79880371 -5.07373047 226.79174805 C-36.31502629 226.17267235 -65.28934011 216.30486728 -88.125 194.625 C-106.1718034 175.82744958 -115.7413299 150.19001994 -116.9375 124.375 C-116.98849854 123.27865234 -116.98849854 123.27865234 -117.04052734 122.16015625 C-118.37584492 88.70265599 -108.79327441 59.12414774 -86.79296875 33.91796875 C-64.12103019 9.90001529 -32.21396585 0.33503588 0 0 Z M78.6875 16.25 C76.16593353 21.09916628 75.9367601 25.79796203 75.94897461 31.19677734 C75.94905014 32.31748627 75.94912567 33.43819519 75.94920349 34.59286499 C75.95436478 35.78682892 75.95952606 36.98079285 75.96484375 38.2109375 C75.9662587 39.44542633 75.96767365 40.67991516 75.96913147 41.95181274 C75.97471728 45.88456675 75.98726725 49.81726328 76 53.75 C76.00558088 56.42057208 76.00957942 59.09114363 76.01367188 61.76171875 C76.02468208 68.29949869 76.04140615 74.83724524 76.0625 81.375 C73.4225 81.375 70.7825 81.375 68.0625 81.375 C68.09730469 80.82714844 68.13210938 80.27929688 68.16796875 79.71484375 C68.7039736 64.01755875 64.12691618 43.75622486 54.0625 31.375 C53.31226563 30.36759766 53.31226563 30.36759766 52.546875 29.33984375 C44.09221462 18.68943419 31.13252062 11.67076183 17.65136719 10.09277344 C4.12033571 9.05513364 -7.15728613 10.82968497 -18.3125 19.0625 C-38.03068535 36.16435655 -43.71386884 67.44764016 -45.76318359 92.28735352 C-46.12805717 98.75031728 -46.1346564 105.21627986 -46.125 111.6875 C-46.12439575 112.43555908 -46.1237915 113.18361816 -46.12316895 113.9543457 C-46.05562589 144.8561178 -43.46235472 182.51705299 -21.14453125 206.37109375 C-17.45534018 209.72074865 -13.38532253 212.16115168 -8.9375 214.375 C-7.91398437 214.91640625 -6.89046875 215.4578125 -5.8359375 216.015625 C-0.92051518 218.07472561 4.1266922 217.81130405 9.375 217.75 C10.84743164 217.76740234 10.84743164 217.76740234 12.34960938 217.78515625 C27.50148581 217.72498996 39.93156592 211.17603089 50.8125 200.80078125 C64.16464859 186.40549606 68.77440056 163.38098913 68.16796875 144.1484375 C68.11576172 143.27058594 68.11576172 143.27058594 68.0625 142.375 C70.7025 142.375 73.3425 142.375 76.0625 142.375 C76.04917633 143.4880098 76.04917633 143.4880098 76.0355835 144.62350464 C75.95506161 151.65465145 75.89434622 158.68563554 75.85525131 165.7171154 C75.83447558 169.33114345 75.80634487 172.94478695 75.76074219 176.55859375 C75.71692186 180.05347537 75.69328782 183.54798976 75.68299103 187.04312515 C75.67212519 189.00941341 75.64095819 190.97555623 75.60931396 192.94161987 C75.60747084 200.38739877 76.17660181 206.86340621 80.0625 213.375 C85.72355089 218.23779145 91.51636627 218.004633 98.75 217.875 C100.3580249 217.85578491 100.3580249 217.85578491 101.99853516 217.83618164 C116.5026379 217.46425327 127.05294943 212.76777131 137.25 202.375 C144.4902853 193.69248483 148.1133478 182.99513157 151.3125 172.3125 C151.66368896 171.17506348 151.66368896 171.17506348 152.02197266 170.01464844 C156.95720737 152.44592041 157.57654161 134.14422595 157.50854492 116.01733398 C157.50003191 112.57539967 157.52894851 109.13513173 157.56054688 105.69335938 C157.64794648 77.40850585 154.49622983 44.89928533 135.2578125 22.4921875 C124.6141079 12.22726242 111.95125332 9.23051704 97.625 9.0625 C96.80451172 9.03349609 95.98402344 9.00449219 95.13867188 8.97460938 C87.97698529 8.90030616 83.39565344 10.55065636 78.6875 16.25 Z " fill="#555555" transform="translate(201.9375,139.625)"/>
<path d="M0 0 C0.83909912 0.01015137 1.67819824 0.02030273 2.54272461 0.03076172 C14.08633654 0.31578917 23.45552662 2.62688026 32.9375 9.375 C33.989375 10.1175 35.04125 10.86 36.125 11.625 C49.79113193 24.98744011 54.73279762 43.14072539 57.9375 61.375 C58.12441406 62.39948242 58.31132812 63.42396484 58.50390625 64.47949219 C60.51272574 77.12429346 60.33503373 89.85294494 60.3125 102.625 C60.31162384 103.82953827 60.31074768 105.03407654 60.30984497 106.27511597 C60.23521402 137.29705696 59.01203586 173.23949734 36.35546875 197.1484375 C26.36633956 206.34682786 15.00112467 208.90377262 1.75 208.8125 C0.18862305 208.8424707 0.18862305 208.8424707 -1.40429688 208.87304688 C-7.79327413 208.86899038 -12.13615324 208.62405395 -17.0625 204.375 C-22.30070596 196.04830125 -21.61614791 186.46366555 -21.54833984 177.02685547 C-21.55048887 175.28468542 -21.55437127 173.54251678 -21.55984497 171.800354 C-21.56949266 167.09380462 -21.5542933 162.38763784 -21.53393888 157.6811347 C-21.51629813 152.74414387 -21.5198943 147.80716363 -21.5206604 142.87014771 C-21.51879081 134.58345178 -21.50147162 126.29690286 -21.47412109 118.01025391 C-21.44265325 108.44101164 -21.43212585 98.87193011 -21.4335922 89.30263984 C-21.43494488 79.09524285 -21.42105527 68.88790748 -21.40269899 58.68052912 C-21.39844453 55.74703771 -21.39701776 52.81355631 -21.39622116 49.8800621 C-21.39420651 45.26544351 -21.38194994 40.65095889 -21.36188889 36.03638458 C-21.35606685 34.34655961 -21.35358247 32.65671922 -21.35474396 30.96688461 C-21.355732 28.65355355 -21.34435023 26.34059249 -21.32992554 24.02731323 C-21.32657385 22.73504255 -21.32322216 21.44277187 -21.31976891 20.11134148 C-20.87623095 13.6697964 -19.85553263 8.03489284 -15.0625 3.375 C-9.97043403 0.18376594 -5.82510868 -0.10144819 0 0 Z " fill="#FEFEFE" transform="translate(299.0625,148.625)"/>
<path d="M0 0 C43.11688584 -0.67098324 87.4823827 1.64693615 120.71875 32.6171875 C139.79465097 52.54235803 146.16718618 78.21462204 146.24023438 104.97460938 C146.24988949 107.10066646 146.28099164 109.22573277 146.3125 111.3515625 C146.41160289 124.10181723 144.76417413 136.60127574 140.3125 148.625 C139.93121948 149.67228271 139.93121948 149.67228271 139.54223633 150.74072266 C135.07492435 162.51538573 128.42760119 172.64245661 120 182 C119.31421875 182.76828125 118.6284375 183.5365625 117.921875 184.328125 C98.98162612 204.39075899 70.08496337 215.95645158 43 219 C41.82993408 219.13631836 41.82993408 219.13631836 40.63623047 219.27539062 C30.05139038 220.324465 19.43660228 220.15115709 8.8125 220.125 C7.78285126 220.12411377 6.75320251 220.12322754 5.69235229 220.12231445 C-12.55301463 220.10391749 -30.76970478 219.73287619 -49 219 C-45.68103474 216.78735649 -42.2037695 215.11107678 -38.625 213.375 C-32.04500811 210.16203738 -25.93296813 206.56512134 -19.8671875 202.46875 C-16.64034437 200.81576224 -14.57535277 200.70293805 -11 201 C-7.74288723 206.77874846 -6.30656385 211.37822074 -6 218 C-3.69 218.33 -1.38 218.66 1 219 C0.67 212.73 0.34 206.46 0 200 C2 203 2 203 3.25 206.5 C5.42504754 210.85009508 6.4628133 211.35857717 11 213 C14.88160188 213.45503813 18.7201224 213.47566527 22.625 213.4375 C24.23979248 213.42505249 24.23979248 213.42505249 25.88720703 213.41235352 C39.28001973 213.12720574 49.65050365 209.45448916 59.1875 199.78125 C66.92828694 190.7503319 70.81528119 180.28747133 74.1875 169.0625 C74.54448975 167.91334106 74.54448975 167.91334106 74.90869141 166.7409668 C79.90093504 149.14566942 80.5141869 130.80795692 80.44604492 112.64233398 C80.43753191 109.20039967 80.46644851 105.76013173 80.49804688 102.31835938 C80.58373983 74.58582404 77.61050732 42.09862262 58.97265625 19.89453125 C48.41850454 9.75836574 35.71786879 6.85351293 21.5625 6.6875 C20.74201172 6.65849609 19.92152344 6.62949219 19.07617188 6.59960938 C13.18722015 6.53851091 9.8299527 7.59466465 5 11 C2.24032405 14.49558954 1.51027301 17.61165213 1 22 C0.67 22 0.34 22 0 22 C0 14.74 0 7.48 0 0 Z " fill="#A6A6A6" transform="translate(278,143)"/>
<path d="M0 0 C3.7842367 3.1705767 4.79060918 7.37182754 6.3125 11.9375 C6.40927763 14.2781025 6.44317444 16.62143461 6.44621277 18.96403503 C6.44847833 19.68374255 6.45074388 20.40345007 6.45307809 21.1449669 C6.45942162 23.56305077 6.45858849 25.98107864 6.45776367 28.39916992 C6.46075503 30.13045321 6.4641575 31.86173584 6.46794128 33.59301758 C6.47678997 38.30190815 6.47911982 43.01078056 6.47975707 47.71967864 C6.48070601 51.65086634 6.48438431 55.5820498 6.48792917 59.51323587 C6.49607777 68.79113403 6.49851311 78.06902249 6.49780273 87.34692383 C6.49720249 96.91316586 6.50774278 106.4793514 6.5235464 116.04557914 C6.53663213 124.25971211 6.54198616 132.47382666 6.54134732 140.68796998 C6.54109255 145.59322583 6.54393211 150.49843153 6.55452538 155.40367699 C6.56422317 160.02063718 6.56427398 164.6374995 6.55700874 169.2544632 C6.55596485 170.9459046 6.55831419 172.63735215 6.5643692 174.32878304 C6.57212019 176.6446517 6.56742393 178.96018498 6.55973816 181.27604675 C6.56028293 182.57003482 6.56082769 183.86402288 6.56138897 185.19722271 C6.07352577 192.52877965 4.53936847 197.71063153 -0.6875 202.9375 C-6.93495915 205.01998638 -10.68664377 204.19952669 -16.5625 201.4375 C-32.10070021 193.06779615 -39.48193744 179.33782075 -44.6875 162.9375 C-46.17886482 157.64192395 -47.43457216 152.2939033 -48.6875 146.9375 C-48.85830078 146.30070313 -49.02910156 145.66390625 -49.20507812 145.0078125 C-53.1392846 130.29475779 -52.88730805 114.63183666 -52.9375 99.5 C-52.94267639 98.78910217 -52.94785278 98.07820435 -52.95318604 97.34576416 C-53.01056031 87.35600963 -52.25222036 77.82234696 -50.6875 67.9375 C-50.46852051 66.47147339 -50.46852051 66.47147339 -50.24511719 64.97583008 C-47.09352111 44.4332545 -41.71662277 19.14264478 -24.046875 5.96875 C-16.77730839 1.12237226 -8.84726045 -3.49775413 0 0 Z " fill="#FEFEFE" transform="translate(208.6875,152.0625)"/>
<path d="M0 0 C1.32 0 2.64 0 4 0 C4 7.59 4 15.18 4 23 C-7.53557692 23.37211538 -7.53557692 23.37211538 -9.88671875 21.48828125 C-10.25410156 20.99714844 -10.62148437 20.50601562 -11 20 C-13.6905528 21.22007944 -13.6905528 21.22007944 -16 23 C-19.05380738 23.43360348 -21.95001458 23.46840963 -25 23 C-27.625 20.875 -27.625 20.875 -29 18 C-29 14.51212968 -28.66872079 12.77160091 -26.375 10.125 C-23.05773593 8.55366439 -20.62732635 8.61135789 -17 9 C-14.5625 10.375 -14.5625 10.375 -13 12 C-13 12.66 -13 13.32 -13 14 C-12.34 14 -11.68 14 -11 14 C-10.5359375 13.0409375 -10.5359375 13.0409375 -10.0625 12.0625 C-9 10 -9 10 -8 9 C-2.47058824 8.76470588 -2.47058824 8.76470588 0 10 C0 6.7 0 3.4 0 0 Z " fill="#595959" transform="translate(260,378)"/>
<path d="M0 0 C13.53 0 27.06 0 41 0 C41 7.9393795 40.94559455 11.71549884 36.625 18 C35 19 35 19 32.76953125 18.8203125 C29.2659965 17.78259417 26.9926239 16.05504174 24.0625 13.875 C18.28183406 9.6853199 12.33865717 6.47106964 5.8984375 3.41015625 C3 2 3 2 0 0 Z " fill="#A4A4A4" transform="translate(230,144)"/>
<path d="M0 0 C0 4.62 0 9.24 0 14 C-12.44494982 14.36965197 -12.44494982 14.36965197 -14.89453125 12.73828125 C-16.21474859 10.66232112 -16.40282372 9.4484873 -16.375 7 C-16.38273438 6.319375 -16.39046875 5.63875 -16.3984375 4.9375 C-14.83726578 -2.65408014 -5.83607565 -0.17334878 0 0 Z " fill="#5F5F5F" transform="translate(210,387)"/>
<path d="M0 0 C1.65 0 3.3 0 5 0 C5.33 3.96 5.66 7.92 6 12 C6.99 11.01 7.98 10.02 9 9 C12.1875 8.8125 12.1875 8.8125 15 9 C13.66666667 11.66666667 12.33333333 14.33333333 11 17 C12.65 18.98 14.3 20.96 16 23 C13.25 23.25 13.25 23.25 10 23 C7.625 21 7.625 21 6 19 C5.67 20.32 5.34 21.64 5 23 C3.35 23 1.7 23 0 23 C0 15.41 0 7.82 0 0 Z " fill="#5F5F5F" transform="translate(295,378)"/>
<path d="M0 0 C2.4375 1.375 2.4375 1.375 4 3 C4 3.66 4 4.32 4 5 C4.66 5 5.32 5 6 5 C6.3125 7.25 6.3125 7.25 6 10 C3.83802045 12.5804272 2.13537939 13.78181321 -1.1953125 14.421875 C-5.34465617 14.66837066 -7.32577004 14.54580521 -10.625 11.875 C-12.33259237 8.30457959 -12.29351877 6.71886648 -11 3 C-7.85010439 -0.63449494 -4.59570403 -0.49239686 0 0 Z " fill="#626262" transform="translate(243,387)"/>
<path d="M0 0 C2.4375 1.75 2.4375 1.75 4 4 C4 5.32 4 6.64 4 8 C-0.455 8.495 -0.455 8.495 -5 9 C-1.25308553 10.39770584 -1.25308553 10.39770584 1 9 C1.66 9.33 2.32 9.66 3 10 C2.34 11.32 1.68 12.64 1 14 C-6.25581395 14.48372093 -6.25581395 14.48372093 -9.5 12.375 C-11.45562482 9.27859404 -11.60024477 7.60146865 -11 4 C-8.05899778 -0.47032338 -5.13105401 -0.73300772 0 0 Z " fill="#686868" transform="translate(277,387)"/>
<path d="M0 0 C1.65 0 3.3 0 5 0 C5 7.59 5 15.18 5 23 C3.35 23 1.7 23 0 23 C0 15.41 0 7.82 0 0 Z " fill="#5F5F5F" transform="translate(212,378)"/>
<path d="M0 0 C1.670625 0.061875 1.670625 0.061875 3.375 0.125 C3.705 0.785 4.035 1.445 4.375 2.125 C4.045 2.785 3.715 3.445 3.375 4.125 C1.725 3.795 0.075 3.465 -1.625 3.125 C-1.625 3.785 -1.625 4.445 -1.625 5.125 C0.355 5.785 2.335 6.445 4.375 7.125 C4.5 9.5 4.5 9.5 4.375 12.125 C2.375 14.125 2.375 14.125 0.4296875 14.3203125 C-1.58854167 14.25520833 -3.60677083 14.19010417 -5.625 14.125 C-5.625 12.805 -5.625 11.485 -5.625 10.125 C-3.975 10.455 -2.325 10.785 -0.625 11.125 C-0.625 10.465 -0.625 9.805 -0.625 9.125 C-3.1 8.135 -3.1 8.135 -5.625 7.125 C-5.75 4.75 -5.75 4.75 -5.625 2.125 C-3.625 0.125 -3.625 0.125 0 0 Z " fill="#5C5C5C" transform="translate(288.625,386.875)"/>
<path d="M0 0 C0 1.32 0 2.64 0 4 C-1.65 4.66 -3.3 5.32 -5 6 C-5 6.99 -5 7.98 -5 9 C-3.35 9.33 -1.7 9.66 0 10 C0.33 11.32 0.66 12.64 1 14 C-6.26948775 14.60579065 -6.26948775 14.60579065 -9.5625 11.875 C-11 9 -11 9 -11 5.875 C-8.99393418 0.10756076 -5.75630632 -0.39247543 0 0 Z " fill="#5D5D5D" transform="translate(192,387)"/>
<path d="M0 0 C0.33 1.32 0.66 2.64 1 4 C-0.65 4.33 -2.3 4.66 -4 5 C-4 6.32 -4 7.64 -4 9 C-2.35 9.33 -0.7 9.66 1 10 C1 11.32 1 12.64 1 14 C-2.49186021 14.20145347 -5.19917389 14.34907805 -8.4375 12.9375 C-10 11 -10 11 -10.5 7.5625 C-10 4 -10 4 -8.375 1.5625 C-5.397402 -0.39644605 -3.49644963 -0.31785906 0 0 Z " fill="#5D5D5D" transform="translate(229,387)"/>
<path d="M0 0 C0.2475 0.61875 0.495 1.2375 0.75 1.875 C2.20628639 4.35068687 3.37812506 4.95125002 6 6 C6 6.66 6 7.32 6 8 C5.21625 7.95875 4.4325 7.9175 3.625 7.875 C0.83883881 7.71271266 0.83883881 7.71271266 -1 10 C-1.33 9.01 -1.66 8.02 -2 7 C-4.31 7.33 -6.62 7.66 -9 8 C-9.66 7.01 -10.32 6.02 -11 5 C-7.7 5 -4.4 5 -1 5 C-0.67 3.35 -0.34 1.7 0 0 Z " fill="#ECECEC" transform="translate(282,390)"/>
<path d="M0 0 C0.125 3.375 0.125 3.375 0 7 C-0.66 7.66 -1.32 8.32 -2 9 C-2 8.34 -2 7.68 -2 7 C-3.65 7 -5.3 7 -7 7 C-7.625 5.125 -7.625 5.125 -8 3 C-5.48696401 0.48696401 -3.51117809 0 0 0 Z " fill="#F3F3F3" transform="translate(194,390)"/>
<path d="M0 0 C1.65 0.33 3.3 0.66 5 1 C4.67 2.65 4.34 4.3 4 6 C2.35 5.67 0.7 5.34 -1 5 C-0.67 3.35 -0.34 1.7 0 0 Z " fill="#F2F2F2" transform="translate(200,391)"/>
<path d="M0 0 C2.0625 0.4375 2.0625 0.4375 4 1 C4.5625 2.9375 4.5625 2.9375 5 5 C4 6 4 6 1.4375 6.0625 C0.2309375 6.0315625 0.2309375 6.0315625 -1 6 C-1.042721 4.33388095 -1.04063832 2.66617115 -1 1 C-0.67 0.67 -0.34 0.34 0 0 Z " fill="#F1F1F1" transform="translate(255,391)"/>
<path d="M0 0 C2.0625 0.4375 2.0625 0.4375 4 1 C4.5625 2.9375 4.5625 2.9375 5 5 C4 6 4 6 1.4375 6.0625 C0.2309375 6.0315625 0.2309375 6.0315625 -1 6 C-1.042721 4.33388095 -1.04063832 2.66617115 -1 1 C-0.67 0.67 -0.34 0.34 0 0 Z " fill="#F1F1F1" transform="translate(238,391)"/>
<path d="M0 0 C1.32 0.66 2.64 1.32 4 2 C3.67 3.32 3.34 4.64 3 6 C1.35 5.67 -0.3 5.34 -2 5 C-1.125 1.125 -1.125 1.125 0 0 Z " fill="#5E5E5E" transform="translate(314,395)"/>
</svg>
