<?xml version="1.0" encoding="UTF-8"?>
<svg version="1.1" xmlns="http://www.w3.org/2000/svg" width="500" height="500">
<path d="M0 0 C165 0 330 0 500 0 C500 165 500 330 500 500 C335 500 170 500 0 500 C0 335 0 170 0 0 Z " fill="#ED0100" transform="translate(0,0)"/>
<path d="M0 0 C165 0 330 0 500 0 C500 165 500 330 500 500 C335 500 170 500 0 500 C0 335 0 170 0 0 Z M118 99 C117.32630371 99.22558594 116.65260742 99.45117188 115.95849609 99.68359375 C77.92904541 112.56938034 47.8755274 140.17077234 30 176 C27.72505258 180.90223129 25.81690615 185.91266277 24 191 C23.63261719 192.00804687 23.26523437 193.01609375 22.88671875 194.0546875 C8.82961174 235.84608671 11.87583589 285.64086227 31.08349609 325.23339844 C36.02645708 334.95908034 42.02141285 343.63651493 49 352 C49.77988281 352.94488281 50.55976562 353.88976562 51.36328125 354.86328125 C76.61141411 384.07838752 116.55982025 399.93953526 154.41796875 402.71484375 C161.21294004 403.10366363 168.00746076 403.28648267 174.8125 403.375 C176.55273438 403.41427612 176.55273438 403.41427612 178.328125 403.4543457 C184.97927416 403.46663904 191.07187724 402.86814554 197.57426357 401.54927063 C210.25903202 399.01687955 222.4770423 398.50801044 235.38084221 398.69934082 C238.9578941 398.75172892 242.53433283 398.77678799 246.11170959 398.79589844 C254.99508698 398.84858991 263.87787272 398.94507604 272.76086426 399.04150391 C324.37034881 399.97171221 324.37034881 399.97171221 375 391 C376.04285156 390.72800781 377.08570313 390.45601563 378.16015625 390.17578125 C404.12657835 382.92094018 427.45122558 369.41647744 447 351 C447.99580078 350.10087891 447.99580078 350.10087891 449.01171875 349.18359375 C473.61596728 326.07656115 487.54669056 289.21343772 489 256 C489.81083421 229.37667804 488.24488347 201.56762585 477 177 C476.56880859 176.05350586 476.56880859 176.05350586 476.12890625 175.08789062 C469.95901564 161.71126058 462.1223529 150.73529815 452 140 C451.33742188 139.26136719 450.67484375 138.52273437 449.9921875 137.76171875 C435.28011853 122.0147704 415.04099294 112.90542909 395 106 C394.1440625 105.70480469 393.288125 105.40960938 392.40625 105.10546875 C380.81828464 101.39493875 368.69575831 99.14259259 356.6875 97.3125 C355.91293457 97.19326172 355.13836914 97.07402344 354.34033203 96.95117188 C343.46573687 95.37322684 332.60174265 94.84837549 321.62304688 94.93408203 C320.4618483 94.93875488 319.30064972 94.94342773 318.10426331 94.94824219 C315.60754929 94.95866404 313.11084369 94.97129868 310.614151 94.98596573 C306.65256553 95.00818369 302.69099775 95.02242461 298.72937012 95.03366089 C287.47397276 95.06683718 276.21865282 95.10862999 264.96337891 95.17138672 C258.72473742 95.20608556 252.48615148 95.2297767 246.24742365 95.24159515 C242.96010926 95.24831014 239.67308656 95.26231079 236.385849 95.28662491 C232.71611573 95.31330633 229.04677187 95.32101504 225.37695312 95.32470703 C224.31267593 95.3370639 223.24839874 95.34942078 222.15187073 95.3621521 C215.41544399 95.34441141 209.35202379 94.38189421 202.82518768 92.71044731 C193.51267772 90.36863912 183.79086629 90.7574296 174.25 90.75 C173.47199036 90.74932526 172.69398071 90.74865051 171.89239502 90.74795532 C153.1467664 90.77373592 135.78661206 92.91793222 118 99 Z " fill="#310F11" transform="translate(0,0)"/>
<path d="M0 0 C0.76308472 0.00215515 1.52616943 0.0043103 2.31237793 0.00653076 C20.04073116 0.08669714 35.47875803 1.74471979 51.6875 9.3125 C53.25757813 10.02599609 53.25757813 10.02599609 54.859375 10.75390625 C63.27385946 14.75405625 71.03705291 19.73318593 78.41796875 25.4140625 C82.7177484 28.92750589 82.7177484 28.92750589 87.86328125 30.5234375 C89.99972417 30.2816868 89.99972417 30.2816868 92.6875 29.3125 C96.01782995 21.82348392 98.02900967 14.32853659 99.6875 6.3125 C102.6575 6.3125 105.6275 6.3125 108.6875 6.3125 C108.84867415 30.94238969 108.57072217 55.56116002 108.1875 80.1875 C108.16956327 81.34046759 108.16956327 81.34046759 108.15126419 82.51672745 C108.00149162 92.11539785 107.84677324 101.71398241 107.6875 111.3125 C104.3875 111.3125 101.0875 111.3125 97.6875 111.3125 C97.56745605 110.41756836 97.44741211 109.52263672 97.32373047 108.60058594 C93.24121889 78.68265066 89.398657 50.55461797 64.6875 30.3125 C57.38637907 24.84410942 49.16626549 20.62863939 40.6875 17.3125 C39.91019531 16.9928125 39.13289062 16.673125 38.33203125 16.34375 C22.97040988 11.06853503 4.43352181 13.45477024 -10.25 19.52734375 C-29.44027824 28.93167044 -39.85117753 47.80718983 -46.75390625 67.22265625 C-48.08888809 71.21284778 -49.21993978 75.25025356 -50.3125 79.3125 C-50.52503418 80.07981445 -50.73756836 80.84712891 -50.95654297 81.63769531 C-54.70681432 95.36572754 -56.62260977 109.08777071 -58.00292969 123.23730469 C-58.17492373 124.94585121 -58.35463756 126.65384757 -58.5650177 128.35809326 C-59.21758229 133.73246341 -59.47215947 139.01027171 -59.48046875 144.421875 C-59.48461288 145.26293793 -59.48875702 146.10400085 -59.49302673 146.97055054 C-59.50262008 149.66791255 -59.50269744 152.3651237 -59.5 155.0625 C-59.50006042 155.98190369 -59.50012085 156.90130737 -59.50018311 157.84857178 C-59.48773048 171.1123503 -59.1001336 184.15501404 -57.3125 197.3125 C-57.15245077 198.66116433 -56.99484342 200.010121 -56.83984375 201.359375 C-55.11846793 215.53541113 -52.13669959 228.8558549 -47.5625 242.375 C-47.15773438 243.62087891 -46.75296875 244.86675781 -46.3359375 246.15039062 C-42.18250047 258.56555567 -37.10052016 270.43832004 -28.3125 280.3125 C-27.49845703 281.24835938 -27.49845703 281.24835938 -26.66796875 282.203125 C-17.37103357 292.21855869 -3.38306241 298.6999296 10.18920898 299.45092773 C21.85565185 299.87360247 32.84392319 300.16213988 43.6875 295.3125 C44.32236328 295.03341797 44.95722656 294.75433594 45.61132812 294.46679688 C54.55413367 290.4743216 62.40830168 285.95459902 69.6875 279.3125 C70.61755859 278.51972656 70.61755859 278.51972656 71.56640625 277.7109375 C81.44020304 268.74279097 86.15823451 256.80691114 89.6875 244.3125 C89.97238281 243.32765625 90.25726563 242.3428125 90.55078125 241.328125 C94.50760148 226.63716167 96.17027105 211.41339053 97.6875 196.3125 C100.9875 196.3125 104.2875 196.3125 107.6875 196.3125 C107.69780746 197.32187119 107.70811493 198.33124237 107.71873474 199.37120056 C107.81757623 209.00253274 107.92038783 218.63381594 108.02683926 228.2650671 C108.08141257 233.2135588 108.13470791 238.1620566 108.18481445 243.1105957 C108.39915852 264.19284058 108.61842669 285.25241174 109.6875 306.3125 C106.3875 306.3125 103.0875 306.3125 99.6875 306.3125 C99.41486328 304.68441406 99.41486328 304.68441406 99.13671875 303.0234375 C98.88330466 301.57803863 98.62937075 300.13273082 98.375 298.6875 C98.25705078 297.97464844 98.13910156 297.26179688 98.01757812 296.52734375 C97.04542739 291.09327039 95.70287591 286.32787591 91.6875 282.3125 C85.28408069 281.03181614 80.79534159 284.98283905 75.6875 288.3125 C63.4747238 296.11198651 51.19757759 303.01371529 37.4375 307.6875 C36.74180908 307.9261377 36.04611816 308.16477539 35.3293457 308.41064453 C24.41859743 311.92761571 13.59221651 312.64906053 2.1875 312.5625 C1.20289291 312.55685028 1.20289291 312.55685028 0.19839478 312.55108643 C-43.70081748 312.25729504 -84.54356296 299.88542714 -117.0859375 269.57421875 C-129.17344907 257.29585173 -138.22842903 242.91118939 -145.3125 227.3125 C-145.59754395 226.68585449 -145.88258789 226.05920898 -146.17626953 225.41357422 C-163.78702349 185.94262774 -162.64888719 136.77380193 -148 96.625 C-132.95835171 59.61028555 -106.40930127 29.65385643 -69.40234375 13.5703125 C-65.74406743 12.04429659 -62.04039982 10.65983408 -58.3125 9.3125 C-57.27351563 8.93351562 -56.23453125 8.55453125 -55.1640625 8.1640625 C-37.17515807 1.88447119 -18.92484225 -0.09678241 0 0 Z " fill="#FBE4E4" transform="translate(173.3125,90.6875)"/>
<path d="M0 0 C1.56633179 0.00640503 1.56633179 0.00640503 3.16430664 0.01293945 C15.9776565 0.28900934 30.06948481 2.74037943 40.625 10.5 C41.51316406 11.14839844 42.40132813 11.79679687 43.31640625 12.46484375 C67.11005626 30.88468981 75.38019638 60.92562009 79.625 89.5 C81.63048327 106.12320231 81.94397901 122.80646998 81.88574219 139.53051758 C81.87497608 143.19564219 81.88574109 146.86028022 81.8984375 150.52539062 C81.91028561 169.35360997 80.8477396 187.90884984 77.75 206.5 C77.5756543 207.55340576 77.40130859 208.60681152 77.22167969 209.69213867 C72.96320293 234.54668069 63.84004023 262.03689585 42.5625 277.375 C40.93231348 278.4409872 39.2874737 279.48510198 37.625 280.5 C36.99207031 280.88800781 36.35914063 281.27601563 35.70703125 281.67578125 C33.72054281 282.77279725 31.7289233 283.6489338 29.625 284.5 C28.75875 284.87253906 27.8925 285.24507813 27 285.62890625 C18.52397294 288.66968096 10.3156383 288.9233062 1.375 289 C-0.4188916 289.02755371 -0.4188916 289.02755371 -2.24902344 289.05566406 C-9.9406181 289.00226504 -18.28983207 288.52712665 -24.07617188 282.82299805 C-31.1538362 273.91072862 -30.52597992 261.15299401 -30.51544189 250.33607483 C-30.51989858 248.8770721 -30.51989858 248.8770721 -30.5244453 247.38859457 C-30.53305965 244.1562709 -30.53463431 240.92398459 -30.53613281 237.69165039 C-30.54076596 235.36322451 -30.54579128 233.03479938 -30.55117798 230.70637512 C-30.5642519 224.40064497 -30.57073655 218.09492543 -30.57518864 211.78918386 C-30.57812609 207.84619903 -30.58223204 203.90321707 -30.58669281 199.96023369 C-30.59878947 189.02501719 -30.60917683 178.08980318 -30.6125679 167.15458012 C-30.61278747 166.45640703 -30.61300703 165.75823394 -30.61323325 165.0389041 C-30.61345153 164.33915753 -30.61366981 163.63941096 -30.6138947 162.91845995 C-30.61433815 161.50073437 -30.61478472 160.08300879 -30.61523438 158.6652832 C-30.6154558 157.96205732 -30.61567723 157.25883143 -30.61590537 156.53429567 C-30.61985488 145.13538046 -30.63731926 133.7365291 -30.6605939 122.33763856 C-30.68434284 110.61112765 -30.69677124 98.88464876 -30.69793582 87.15811342 C-30.69898267 80.58337392 -30.70486587 74.00872474 -30.72275543 67.43400764 C-30.73925418 61.25088854 -30.74138275 55.06792753 -30.73261642 48.88479424 C-30.73184716 46.62053376 -30.73617415 44.35626472 -30.74607468 42.09202576 C-30.75883338 38.9914668 -30.75289601 35.89146463 -30.74249268 32.79090881 C-30.75054908 31.90372557 -30.75860548 31.01654233 -30.76690602 30.10247475 C-30.69339876 20.6792376 -28.87272226 12.4276739 -22.6796875 5.15625 C-15.90973649 0.29106487 -8.08023185 -0.05039918 0 0 Z " fill="#310E10" transform="translate(316.375,102.5)"/>
<path d="M0 0 C4.08677961 2.95156305 6.32847407 7.54171951 7.7578125 12.26953125 C8.73896657 18.56514772 8.90272507 24.82665376 8.89152527 31.18585205 C8.89379083 32.14400432 8.89605638 33.1021566 8.89839059 34.08934379 C8.90468704 37.27865054 8.90390404 40.46791431 8.90307617 43.65722656 C8.90607038 45.95270339 8.90947352 48.24817972 8.91325378 50.5436554 C8.92207135 56.76487399 8.92443096 62.98607881 8.92506957 69.20730305 C8.92578135 73.09820256 8.9279181 76.9890986 8.93056679 80.87999725 C8.93933611 93.76529232 8.94398742 106.6505763 8.94323631 119.53587392 C8.94319636 120.22931385 8.9431564 120.92275377 8.94311523 121.63720703 C8.94307435 122.33150195 8.94303347 123.02579688 8.94299135 123.74113104 C8.94258512 134.98678021 8.95215112 146.23239587 8.9662536 157.47803536 C8.98064805 169.04858294 8.98733933 180.61911266 8.98665982 192.18966937 C8.98640539 198.67615686 8.9892264 205.16260639 8.99983788 211.649086 C9.00955059 217.75255864 9.00957629 223.85595729 9.00232124 229.9594326 C9.00127934 232.19221035 9.00361471 234.42499278 9.0096817 236.65776253 C9.09149957 268.86910676 9.09149957 268.86910676 1.8828125 277.51953125 C-3.24087503 281.73903863 -8.85710722 281.93699054 -15.27734375 281.8359375 C-26.90161487 280.67901952 -37.49670859 272.42968207 -45.2421875 264.26953125 C-45.82355469 263.67269531 -46.40492188 263.07585937 -47.00390625 262.4609375 C-74.80497569 232.13886428 -77.45759417 178.3184715 -77.4921875 139.58203125 C-77.49352692 138.68889221 -77.49486633 137.79575317 -77.49624634 136.87554932 C-77.48953732 116.11690734 -76.11329625 95.51849005 -71.2421875 75.26953125 C-71.06961426 74.5130127 -70.89704102 73.75649414 -70.71923828 72.97705078 C-64.70209826 46.60217947 -55.75214785 20.04826398 -32.2421875 4.26953125 C-22.07860125 -1.23983343 -10.86057173 -6.02655255 0 0 Z " fill="#310F11" transform="translate(190.2421875,107.73046875)"/>
</svg>
