<?xml version="1.0" encoding="UTF-8"?>
<svg version="1.1" xmlns="http://www.w3.org/2000/svg" width="500" height="500">
<path d="M0 0 C165 0 330 0 500 0 C500 165 500 330 500 500 C335 500 170 500 0 500 C0 335 0 170 0 0 Z " fill="#EE0100" transform="translate(0,0)"/>
<path d="M0 0 C2.00121527 1.34286029 2.00121527 1.34286029 4.22265625 1.0546875 C7.79020803 -0.67299481 8.83686496 -4.26180207 10.0859375 -7.84765625 C10.64577721 -10.84580613 10.94495833 -13.80250619 11.0859375 -16.84765625 C13.7259375 -16.84765625 16.3659375 -16.84765625 19.0859375 -16.84765625 C19.0859375 55.09234375 19.0859375 127.03234375 19.0859375 201.15234375 C16.7759375 201.15234375 14.4659375 201.15234375 12.0859375 201.15234375 C9.84514426 198.91155051 10.12326981 194.16620786 9.68359375 191.1328125 C9.1436831 188.44031688 8.4507983 186.51086889 7.0859375 184.15234375 C0.65140144 183.19869101 -3.37237455 186.50798618 -8.5390625 189.83984375 C-36.36434867 207.15307485 -65.29899355 208.35683409 -96.9140625 201.15234375 C-121.92739543 195.13640939 -145.31265941 178.93228355 -158.83056641 157.01513672 C-168.48427809 140.41806142 -174.02538827 122.33117363 -174.9140625 103.15234375 C-174.96506104 102.05599609 -174.96506104 102.05599609 -175.01708984 100.9375 C-176.35240742 67.47999974 -166.76983691 37.90149149 -144.76953125 12.6953125 C-107.86490438 -26.40031263 -42.36214424 -33.03668928 0 0 Z " fill="#F34444" transform="translate(259.9140625,160.84765625)"/>
<path d="M0 0 C2.00121527 1.34286029 2.00121527 1.34286029 4.22265625 1.0546875 C7.79020803 -0.67299481 8.83686496 -4.26180207 10.0859375 -7.84765625 C10.64577721 -10.84580613 10.94495833 -13.80250619 11.0859375 -16.84765625 C13.7259375 -16.84765625 16.3659375 -16.84765625 19.0859375 -16.84765625 C18.7559375 8.56234375 18.4259375 33.97234375 18.0859375 60.15234375 C15.4459375 60.15234375 12.8059375 60.15234375 10.0859375 60.15234375 C10.02647949 59.54986816 9.96702148 58.94739258 9.90576172 58.32666016 C8.1677264 41.46163609 6.15224999 23.74897011 -4.9140625 10.15234375 C-5.6565625 9.12109375 -6.3990625 8.08984375 -7.1640625 7.02734375 C-12.94597151 0.98262069 -20.20795773 -3.62184495 -27.9140625 -6.84765625 C-28.91179687 -7.29625 -28.91179687 -7.29625 -29.9296875 -7.75390625 C-40.48691505 -11.74055162 -54.46706212 -11.55977026 -65.0390625 -7.84765625 C-79.69354294 -1.12162548 -87.20953785 10.50508243 -92.9140625 25.15234375 C-100.65336723 46.21650647 -103.13486572 68.1467524 -103.1015625 90.46484375 C-103.10095825 91.21290283 -103.100354 91.96096191 -103.09973145 92.73168945 C-103.03400951 122.80027631 -100.80446369 161.16663309 -78.85546875 184.44140625 C-69.71807436 192.49407977 -59.45623177 195.68508629 -47.4765625 195.52734375 C-46.59935547 195.53894531 -45.72214844 195.55054688 -44.81835938 195.5625 C-29.98167211 195.49689932 -17.64034534 188.52380861 -7.03125 178.45703125 C-3.83199961 174.97445241 -1.80134817 171.46711642 0.0859375 167.15234375 C0.50359375 166.26675781 0.92125 165.38117188 1.3515625 164.46875 C7.20163902 150.91842215 8.95129992 135.75815977 10.0859375 121.15234375 C12.7259375 121.15234375 15.3659375 121.15234375 18.0859375 121.15234375 C18.4159375 147.55234375 18.7459375 173.95234375 19.0859375 201.15234375 C16.7759375 201.15234375 14.4659375 201.15234375 12.0859375 201.15234375 C9.84514426 198.91155051 10.12326981 194.16620786 9.68359375 191.1328125 C9.1436831 188.44031688 8.4507983 186.51086889 7.0859375 184.15234375 C0.65140144 183.19869101 -3.37237455 186.50798618 -8.5390625 189.83984375 C-36.36434867 207.15307485 -65.29899355 208.35683409 -96.9140625 201.15234375 C-121.92739543 195.13640939 -145.31265941 178.93228355 -158.83056641 157.01513672 C-168.48427809 140.41806142 -174.02538827 122.33117363 -174.9140625 103.15234375 C-174.96506104 102.05599609 -174.96506104 102.05599609 -175.01708984 100.9375 C-176.35240742 67.47999974 -166.76983691 37.90149149 -144.76953125 12.6953125 C-107.86490438 -26.40031263 -42.36214424 -33.03668928 0 0 Z " fill="#FBE3E3" transform="translate(259.9140625,160.84765625)"/>
<path d="M0 0 C44.17144728 -0.84637747 92.60485941 0.05881728 126.58380127 32.47955322 C142.83996791 48.99643197 152.20026825 73.05667579 152.33966064 96.05328369 C152.34536072 96.8044899 152.35106079 97.55569611 152.35693359 98.32966614 C152.36633212 99.91550311 152.37289695 101.50135915 152.37677002 103.08721924 C152.38638331 105.45713675 152.41741644 107.82615055 152.44903564 110.19586182 C152.54170059 123.40721044 151.0676641 136.20753135 146.44903564 148.68218994 C146.06775513 149.72947266 146.06775513 149.72947266 145.67877197 150.7979126 C141.21145999 162.57257567 134.56413684 172.69964655 126.13653564 182.05718994 C125.45075439 182.82547119 124.76497314 183.59375244 124.05841064 184.38531494 C105.12351673 204.44227664 76.21774839 216.02520909 49.13653564 219.05718994 C48.32331848 219.14838608 47.51010132 219.23958221 46.67224121 219.33354187 C37.05329033 220.26156524 27.46068349 220.18383712 17.80841064 220.15484619 C15.96468138 220.15297724 14.12095162 220.1515556 12.27722168 220.15055847 C7.46377145 220.14677081 2.6503522 220.13697329 -2.16308594 220.12585449 C-7.09055157 220.115559 -12.01802228 220.11104354 -16.94549561 220.10601807 C-26.58483201 220.09534704 -36.22414559 220.07831661 -45.86346436 220.05718994 C-43.07579191 218.19874165 -40.72202303 217.17950944 -37.61346436 215.99468994 C-28.88911189 212.43481409 -21.03025149 207.38607708 -13.12908936 202.29547119 C-10.24897103 200.72133755 -8.09406145 200.83179945 -4.86346436 201.05718994 C-1.60635159 206.8359384 -0.17002821 211.43541068 0.13653564 218.05718994 C2.44653564 218.38718994 4.75653564 218.71718994 7.13653564 219.05718994 C6.64153564 208.66218994 6.64153564 208.66218994 6.13653564 198.05718994 C6.46653564 198.05718994 6.79653564 198.05718994 7.13653564 198.05718994 C7.30669189 198.73265869 7.47684814 199.40812744 7.65216064 200.10406494 C9.34987752 207.06804592 9.34987752 207.06804592 14.13653564 212.05718994 C25.97923306 216.52613236 39.64127617 214.67983877 51.13653564 210.05718994 C66.23262911 202.48037048 73.55127681 189.70745979 78.87091064 174.19390869 C85.31618282 153.77523247 86.66656186 132.6979423 86.58258057 111.40313721 C86.57404627 108.12377439 86.60304475 104.84614965 86.63458252 101.56695557 C86.72338737 74.10335239 83.53979129 41.90890453 65.10919189 19.95172119 C54.87082758 10.11883665 42.43385822 6.88181413 28.63653564 6.86968994 C27.90305908 6.85744385 27.16958252 6.84519775 26.41387939 6.83258057 C20.56961902 6.81689829 16.04712709 7.49397876 11.38653564 11.30718994 C9.02873367 14.18894791 8.05277751 16.47551721 7.13653564 20.05718994 C6.80653564 20.05718994 6.47653564 20.05718994 6.13653564 20.05718994 C6.46653564 13.78718994 6.79653564 7.51718994 7.13653564 1.05718994 C4.49653564 1.05718994 1.85653564 1.05718994 -0.86346436 1.05718994 C-0.81705811 1.61406494 -0.77065186 2.17093994 -0.72283936 2.74468994 C-0.4368548 8.79122047 -1.53094727 12.98543949 -4.86346436 18.05718994 C-5.52346436 18.71718994 -6.18346436 19.37718994 -6.86346436 20.05718994 C-11.44408151 19.8190296 -14.20211368 17.60977115 -17.80096436 14.93218994 C-23.5816303 10.74250984 -29.52480719 7.52825958 -35.96502686 4.46734619 C-38.86346436 3.05718994 -38.86346436 3.05718994 -41.86346436 1.05718994 C-27.9107698 0.61274627 -13.95693394 0.27875194 0 0 Z " fill="#F24343" transform="translate(271.86346435546875,142.94281005859375)"/>
<path d="M0 0 C3.7842367 3.1705767 4.79060918 7.37182754 6.3125 11.9375 C6.41140968 14.28847592 6.44755009 16.6422203 6.45294189 18.99526978 C6.45591302 19.71835528 6.45888414 20.44144078 6.4619453 21.18643796 C6.47063562 23.61600284 6.47214084 26.04551846 6.47363281 28.47509766 C6.47826087 30.21461085 6.48328551 31.95412304 6.48867798 33.69363403 C6.50180797 38.42531435 6.50824848 43.15698047 6.51268864 47.88867617 C6.5156193 50.84581347 6.51972417 53.80294689 6.52419281 56.76008224 C6.53787132 66.01480263 6.5475354 75.26951415 6.5513947 84.52424395 C6.55587196 95.20207539 6.57340295 105.8797786 6.6023953 116.55757105 C6.62403168 124.81333287 6.63410008 133.06905867 6.63543582 141.32484853 C6.63648274 146.25419948 6.64236618 151.18342995 6.66025543 156.11275101 C6.67676919 160.75354924 6.67887558 165.39413687 6.67011642 170.03495407 C6.66934773 171.73404251 6.67366656 173.43314242 6.68357468 175.13220215 C6.79034632 194.59019211 6.79034632 194.59019211 1.3125 201.4375 C-1.69671578 203.69441184 -4.72759648 204.41110282 -8.47265625 204.33984375 C-17.33558313 202.72982352 -25.92816712 196.68537509 -31.6875 189.9375 C-40.37861026 177.02679273 -45.40167291 163.0537317 -48.6875 147.9375 C-48.90817139 146.93082275 -48.90817139 146.93082275 -49.13330078 145.90380859 C-52.24892658 131.39349274 -52.87447366 116.90122888 -52.87280273 102.10351562 C-52.87499888 99.93860453 -52.89328696 97.77419755 -52.91210938 95.609375 C-52.95034449 86.20473518 -52.17280959 77.24110213 -50.6875 67.9375 C-50.54143311 66.96071289 -50.39536621 65.98392578 -50.24487305 64.97753906 C-47.09714585 44.43525376 -41.71513571 19.14153609 -24.046875 5.96875 C-16.77730839 1.12237226 -8.84726045 -3.49775413 0 0 Z " fill="#EE0100" transform="translate(208.6875,152.0625)"/>
<path d="M0 0 C1.32 0 2.64 0 4 0 C4 7.59 4 15.18 4 23 C-7.53557692 23.37211538 -7.53557692 23.37211538 -9.88671875 21.48828125 C-10.25410156 20.99714844 -10.62148437 20.50601562 -11 20 C-13.6905528 21.22007944 -13.6905528 21.22007944 -16 23 C-17.9609375 23.203125 -17.9609375 23.203125 -20.375 23.25 C-21.16648438 23.27578125 -21.95796875 23.3015625 -22.7734375 23.328125 C-25 23 -25 23 -26.76171875 21.734375 C-28.63954425 19.10423455 -28.4824442 17.01873524 -28.34375 13.875 C-28 12 -28 12 -26.4375 10 C-23.08597404 8.62501499 -20.59034613 8.61532006 -17 9 C-14.5625 10.375 -14.5625 10.375 -13 12 C-13 12.66 -13 13.32 -13 14 C-12.34 14 -11.68 14 -11 14 C-10.5359375 13.0409375 -10.5359375 13.0409375 -10.0625 12.0625 C-9 10 -9 10 -8 9 C-2.47058824 8.76470588 -2.47058824 8.76470588 0 10 C0 6.7 0 3.4 0 0 Z " fill="#FBDFDF" transform="translate(260,378)"/>
<path d="M0 0 C0 4.62 0 9.24 0 14 C-12.44494982 14.36965197 -12.44494982 14.36965197 -14.89453125 12.73828125 C-16.21474859 10.66232112 -16.40282372 9.4484873 -16.375 7 C-16.38273438 6.319375 -16.39046875 5.63875 -16.3984375 4.9375 C-14.83726578 -2.65408014 -5.83607565 -0.17334878 0 0 Z " fill="#FBD7D7" transform="translate(210,387)"/>
<path d="M0 0 C1.65 0 3.3 0 5 0 C5.33 3.96 5.66 7.92 6 12 C6.99 11.01 7.98 10.02 9 9 C12.1875 8.8125 12.1875 8.8125 15 9 C13.66666667 11.66666667 12.33333333 14.33333333 11 17 C12.65 18.98 14.3 20.96 16 23 C13.25 23.25 13.25 23.25 10 23 C7.625 21 7.625 21 6 19 C5.67 20.32 5.34 21.64 5 23 C3.35 23 1.7 23 0 23 C0 15.41 0 7.82 0 0 Z " fill="#FBD8D8" transform="translate(295,378)"/>
<path d="M0 0 C2.4375 1.375 2.4375 1.375 4 3 C4 3.66 4 4.32 4 5 C4.66 5 5.32 5 6 5 C6.3125 7.25 6.3125 7.25 6 10 C3.82311837 12.59821356 2.15159557 13.81848756 -1.23046875 14.3515625 C-7.2253201 14.56671214 -7.2253201 14.56671214 -9.74609375 12.72265625 C-11.65099851 10.10563756 -11.48254492 8.02101809 -11.34375 4.875 C-11 3 -11 3 -9.4375 1 C-6.08597404 -0.37498501 -3.59034613 -0.38467994 0 0 Z " fill="#FBD6D6" transform="translate(243,387)"/>
<path d="M0 0 C2.4375 1.75 2.4375 1.75 4 4 C4 5.32 4 6.64 4 8 C-0.455 8.495 -0.455 8.495 -5 9 C-3.576875 8.9690625 -3.576875 8.9690625 -2.125 8.9375 C1 9 1 9 3 10 C2.34 11.32 1.68 12.64 1 14 C-6.25581395 14.48372093 -6.25581395 14.48372093 -9.5 12.375 C-11.45562482 9.27859404 -11.60024477 7.60146865 -11 4 C-8.05899778 -0.47032338 -5.13105401 -0.73300772 0 0 Z " fill="#FACBCB" transform="translate(277,387)"/>
<path d="M0 0 C1.65 0 3.3 0 5 0 C5 7.59 5 15.18 5 23 C3.35 23 1.7 23 0 23 C0 15.41 0 7.82 0 0 Z " fill="#FBD7D7" transform="translate(212,378)"/>
<path d="M0 0 C1.670625 0.061875 1.670625 0.061875 3.375 0.125 C3.705 0.785 4.035 1.445 4.375 2.125 C4.045 2.785 3.715 3.445 3.375 4.125 C1.725 3.795 0.075 3.465 -1.625 3.125 C-1.625 3.785 -1.625 4.445 -1.625 5.125 C0.355 5.785 2.335 6.445 4.375 7.125 C4.375 9.105 4.375 11.085 4.375 13.125 C1.16048731 14.73225635 -2.06112536 14.18248185 -5.625 14.125 C-5.625 12.805 -5.625 11.485 -5.625 10.125 C-3.975 10.455 -2.325 10.785 -0.625 11.125 C-0.625 10.465 -0.625 9.805 -0.625 9.125 C-3.1 8.135 -3.1 8.135 -5.625 7.125 C-5.75 4.75 -5.75 4.75 -5.625 2.125 C-3.625 0.125 -3.625 0.125 0 0 Z " fill="#FBDBDB" transform="translate(288.625,386.875)"/>
<path d="M0 0 C0 1.32 0 2.64 0 4 C-1.65 4.66 -3.3 5.32 -5 6 C-5 6.99 -5 7.98 -5 9 C-3.02 9.66 -1.04 10.32 1 11 C1 11.99 1 12.98 1 14 C-6.25581395 14.48372093 -6.25581395 14.48372093 -9.5 12.375 C-11.45562482 9.27859404 -11.60024477 7.60146865 -11 4 C-8.02080717 -0.52837311 -5.15974216 -0.39690324 0 0 Z " fill="#FBD5D5" transform="translate(192,387)"/>
<path d="M0 0 C0.33 1.32 0.66 2.64 1 4 C-0.65 4.33 -2.3 4.66 -4 5 C-4 6.32 -4 7.64 -4 9 C-2.35 9.33 -0.7 9.66 1 10 C1 11.32 1 12.64 1 14 C-6.32215357 14.36010591 -6.32215357 14.36010591 -9 12.9375 C-10.60856522 9.82090489 -10.42213381 7.43737531 -10 4 C-7.21083461 -0.18374808 -4.85662887 -0.44151172 0 0 Z " fill="#FBD8D8" transform="translate(229,387)"/>
<path d="M0 0 C0.66 0 1.32 0 2 0 C2 0.66 2 1.32 2 2 C2.66 2.33 3.32 2.66 4 3 C4 5.97 4 8.94 4 12 C3.34 12 2.68 12 2 12 C1.67 12.66 1.34 13.32 1 14 C1 12.68 1 11.36 1 10 C-0.65 10 -2.3 10 -4 10 C-4.38218767 8.34385343 -4.71395102 6.67542976 -5 5 C-4 4 -4 4 -1.4375 3.9375 C-0.2309375 3.9684375 -0.2309375 3.9684375 1 4 C0.67 2.68 0.34 1.36 0 0 Z " fill="#EF1918" transform="translate(229,387)"/>
<path d="M0 0 C0.22174933 1.45635371 0.42698698 2.91522956 0.625 4.375 C0.74101562 5.18710937 0.85703125 5.99921875 0.9765625 6.8359375 C0.98429688 7.55007813 0.99203125 8.26421875 1 9 C0.34 9.66 -0.32 10.32 -1 11 C-1.33 10.01 -1.66 9.02 -2 8 C-5.00847418 6.77479736 -5.00847418 6.77479736 -8 6 C-7.8125 4.125 -7.8125 4.125 -7 2 C-4.55683729 0.74709605 -2.75474605 0 0 0 Z " fill="#EF1110" transform="translate(194,390)"/>
<path d="M0 0 C0.2475 0.61875 0.495 1.2375 0.75 1.875 C2.20628639 4.35068687 3.37812506 4.95125002 6 6 C6 6.66 6 7.32 6 8 C5.21625 7.95875 4.4325 7.9175 3.625 7.875 C0.83883881 7.71271266 0.83883881 7.71271266 -1 10 C-1.33 9.01 -1.66 8.02 -2 7 C-4.64 7 -7.28 7 -10 7 C-10.33 6.34 -10.66 5.68 -11 5 C-7.7 5 -4.4 5 -1 5 C-0.67 3.35 -0.34 1.7 0 0 Z " fill="#EF1717" transform="translate(282,390)"/>
<path d="M0 0 C1.65 0.33 3.3 0.66 5 1 C4.67 2.65 4.34 4.3 4 6 C2.35 5.67 0.7 5.34 -1 5 C-0.67 3.35 -0.34 1.7 0 0 Z " fill="#EF1413" transform="translate(200,391)"/>
<path d="M0 0 C2.0625 0.4375 2.0625 0.4375 4 1 C4.5625 2.9375 4.5625 2.9375 5 5 C4 6 4 6 1.4375 6.0625 C0.2309375 6.0315625 0.2309375 6.0315625 -1 6 C-1.042721 4.33388095 -1.04063832 2.66617115 -1 1 C-0.67 0.67 -0.34 0.34 0 0 Z " fill="#EF1514" transform="translate(255,391)"/>
<path d="M0 0 C2.0625 0.4375 2.0625 0.4375 4 1 C4.5625 2.9375 4.5625 2.9375 5 5 C4 6 4 6 1.4375 6.0625 C0.2309375 6.0315625 0.2309375 6.0315625 -1 6 C-1.042721 4.33388095 -1.04063832 2.66617115 -1 1 C-0.67 0.67 -0.34 0.34 0 0 Z " fill="#EF1514" transform="translate(238,391)"/>
<path d="M0 0 C2.0625 0.4375 2.0625 0.4375 4 1 C4.33 2.32 4.66 3.64 5 5 C3.35 5.33 1.7 5.66 0 6 C-0.38218767 4.34385343 -0.71395102 2.67542976 -1 1 C-0.67 0.67 -0.34 0.34 0 0 Z " fill="#FAD1D1" transform="translate(313,395)"/>
</svg>
