<?xml version="1.0" encoding="UTF-8"?>
<svg version="1.1" xmlns="http://www.w3.org/2000/svg" width="500" height="500">
<path d="M0 0 C165 0 330 0 500 0 C500 165 500 330 500 500 C335 500 170 500 0 500 C0 335 0 170 0 0 Z " fill="#FBE5E5" transform="translate(0,0)"/>
<path d="M0 0 C3.39116969 0.67980309 6.74984923 0.57526122 10.19216919 0.53659058 C10.98004318 0.53191772 11.76791718 0.52724487 12.57966614 0.52243042 C14.292394 0.51193162 16.00510965 0.49927016 17.71780777 0.48470688 C20.4556729 0.4625573 23.19346717 0.4485532 25.93139648 0.43701172 C33.7178005 0.40359206 41.50409297 0.36292855 49.29031372 0.29928589 C93.67123673 -0.05125564 139.70178338 1.06602377 174.06668091 33.08786011 C193.14258188 53.01303064 199.51511709 78.68529465 199.58816528 105.44528198 C199.5978204 107.57133907 199.62892255 109.69640538 199.66043091 111.82223511 C199.75953379 124.57248984 198.11210504 137.07194834 193.66043091 149.09567261 C193.4062439 149.79386108 193.15205688 150.49204956 192.89016724 151.21139526 C188.42285525 162.98605833 181.7755321 173.11312921 173.34793091 182.47067261 C172.66214966 183.23895386 171.97636841 184.00723511 171.26980591 184.79879761 C152.33413084 204.85658675 123.42969582 216.43700915 96.34793091 219.47067261 C95.12382256 219.60869041 95.12382256 219.60869041 93.87498474 219.74949646 C85.21579102 220.58905903 76.6106911 220.57360323 67.92186546 220.51527214 C65.20957776 220.49765043 62.49735072 220.48751186 59.78501892 220.47935486 C52.08270559 220.45509179 44.38047542 220.41922179 36.67825317 220.37472534 C31.94414614 220.34789161 27.21008484 220.33088675 22.47591591 220.31985664 C20.68143317 220.31367182 18.88695916 220.30369802 17.09251976 220.28977776 C14.58539401 220.27048027 12.0785098 220.2636551 9.57131958 220.25949097 C8.83922775 220.25072937 8.10713593 220.24196777 7.3528595 220.23294067 C2.68525269 220.24175454 -1.21873269 221.06011235 -5.65206909 222.47067261 C-36.96543531 227.52647653 -70.72151201 221.0156497 -97.04269409 203.24020386 C-119.50708373 186.96792162 -133.38911411 163.14167464 -138.28097534 135.95504761 C-139.00216677 131.12686078 -139.42606578 126.34813934 -139.65206909 121.47067261 C-139.70306763 120.37432495 -139.70306763 120.37432495 -139.75509644 119.25582886 C-141.09041401 85.79832859 -131.50784351 56.21982034 -109.50753784 31.01364136 C-83.80901869 3.78942162 -36.3941182 -11.66077363 0 0 Z " fill="#F24343" transform="translate(224.65206909179688,142.52932739257813)"/>
<path d="M0 0 C3.39116969 0.67980309 6.74984923 0.57526122 10.19216919 0.53659058 C10.98004318 0.53191772 11.76791718 0.52724487 12.57966614 0.52243042 C14.292394 0.51193162 16.00510965 0.49927016 17.71780777 0.48470688 C20.4556729 0.4625573 23.19346717 0.4485532 25.93139648 0.43701172 C33.7178005 0.40359206 41.50409297 0.36292855 49.29031372 0.29928589 C93.67123673 -0.05125564 139.70178338 1.06602377 174.06668091 33.08786011 C193.14258188 53.01303064 199.51511709 78.68529465 199.58816528 105.44528198 C199.5978204 107.57133907 199.62892255 109.69640538 199.66043091 111.82223511 C199.75953379 124.57248984 198.11210504 137.07194834 193.66043091 149.09567261 C193.4062439 149.79386108 193.15205688 150.49204956 192.89016724 151.21139526 C188.42285525 162.98605833 181.7755321 173.11312921 173.34793091 182.47067261 C172.66214966 183.23895386 171.97636841 184.00723511 171.26980591 184.79879761 C152.33413084 204.85658675 123.42969582 216.43700915 96.34793091 219.47067261 C95.12382256 219.60869041 95.12382256 219.60869041 93.87498474 219.74949646 C85.21579102 220.58905903 76.6106911 220.57360323 67.92186546 220.51527214 C65.20957776 220.49765043 62.49735072 220.48751186 59.78501892 220.47935486 C52.08270559 220.45509179 44.38047542 220.41922179 36.67825317 220.37472534 C31.94414614 220.34789161 27.21008484 220.33088675 22.47591591 220.31985664 C20.68143317 220.31367182 18.88695916 220.30369802 17.09251976 220.28977776 C14.58539401 220.27048027 12.0785098 220.2636551 9.57131958 220.25949097 C8.83922775 220.25072937 8.10713593 220.24196777 7.3528595 220.23294067 C2.68525269 220.24175454 -1.21873269 221.06011235 -5.65206909 222.47067261 C-36.96543531 227.52647653 -70.72151201 221.0156497 -97.04269409 203.24020386 C-119.50708373 186.96792162 -133.38911411 163.14167464 -138.28097534 135.95504761 C-139.00216677 131.12686078 -139.42606578 126.34813934 -139.65206909 121.47067261 C-139.70306763 120.37432495 -139.70306763 120.37432495 -139.75509644 119.25582886 C-141.09041401 85.79832859 -131.50784351 56.21982034 -109.50753784 31.01364136 C-83.80901869 3.78942162 -36.3941182 -11.66077363 0 0 Z M55.97293091 13.47067261 C53.58250375 17.8837689 53.22354162 21.25159803 53.23440552 26.24899292 C53.23448105 27.40989441 53.23455658 28.5707959 53.2346344 29.76687622 C53.23979568 31.01491028 53.24495697 32.26294434 53.25027466 33.54879761 C53.25168961 34.83050842 53.25310455 36.11221924 53.25456238 37.43276978 C53.2583719 40.83250901 53.26818877 44.2322052 53.27926636 47.63192749 C53.28951417 51.10421161 53.29406721 54.57650271 53.29910278 58.04879761 C53.30981249 64.8561069 53.32687006 71.66338768 53.34793091 78.47067261 C50.70793091 78.47067261 48.06793091 78.47067261 45.34793091 78.47067261 C45.3827356 77.92282104 45.41754028 77.37496948 45.45339966 76.81051636 C45.98940451 61.11323136 41.41234709 40.85189746 31.34793091 28.47067261 C30.59769653 27.46327026 30.59769653 27.46327026 29.83230591 26.43551636 C21.37764552 15.7851068 8.41795152 8.76643444 -5.0632019 7.18844604 C-18.59423338 6.15080625 -29.87185522 7.92535758 -41.02706909 16.15817261 C-60.00426195 32.61735606 -64.33392518 59.90775968 -67.65206909 83.47067261 C-67.75881958 84.18151001 -67.86557007 84.89234741 -67.97555542 85.62472534 C-68.99296811 93.25758548 -68.85090502 100.97241279 -68.83956909 108.65817261 C-68.83896484 109.41122681 -68.8383606 110.16428101 -68.83773804 110.94015503 C-68.77047763 141.87666254 -66.20638368 179.5812379 -43.85910034 203.46676636 C-40.16990927 206.81642126 -36.09989163 209.25682429 -31.65206909 211.47067261 C-30.62855347 212.01207886 -29.60503784 212.55348511 -28.55050659 213.11129761 C-23.63508427 215.17039822 -18.58787689 214.90697666 -13.33956909 214.84567261 C-11.86713745 214.86307495 -11.86713745 214.86307495 -10.36495972 214.88082886 C4.78691672 214.82066257 17.21699683 208.2717035 28.09793091 197.89645386 C41.45007949 183.50116866 46.05983147 160.47666174 45.45339966 141.24411011 C45.40119263 140.36625854 45.40119263 140.36625854 45.34793091 139.47067261 C47.98793091 139.47067261 50.62793091 139.47067261 53.34793091 139.47067261 C53.34126907 140.18762299 53.33460724 140.90457336 53.32774353 141.64324951 C53.26733723 148.4389415 53.22180763 155.23459274 53.19249439 162.03048515 C53.17691686 165.52336059 53.15582595 169.01601199 53.12161255 172.50875854 C53.08242397 176.53514614 53.06815644 180.56130275 53.05496216 184.58786011 C53.0394783 185.82680023 53.02399445 187.06574036 53.00804138 188.34222412 C53.00643308 196.72092555 53.47106539 204.52525704 58.53543091 211.47067261 C65.86261726 216.68111624 75.68403132 216.47422898 84.34793091 215.47067261 C98.28861169 212.88434813 110.12580063 206.21166866 118.34793091 194.47067261 C133.11846878 169.00639076 134.5357936 139.36581736 134.58816528 110.68795776 C134.59782798 107.504582 134.62892846 104.32186544 134.66043091 101.13864136 C134.80451141 73.28770489 131.90170675 41.18957242 112.34793091 19.47067261 C101.38072204 9.57018314 89.36135223 6.32765175 74.91043091 6.15817261 C74.08994263 6.1291687 73.26945435 6.10016479 72.42410278 6.07028198 C65.22643907 5.9956055 60.5957123 7.6313698 55.97293091 13.47067261 Z " fill="#EE0201" transform="translate(224.65206909179688,142.52932739257813)"/>
<path d="M0 0 C2.4977881 1.43789582 4.84751486 2.97098463 7.1953125 4.640625 C8.2265625 5.3625 9.2578125 6.084375 10.3203125 6.828125 C28.04086775 22.64647375 32.14913825 49.17597948 34.1953125 71.640625 C34.59662023 78.80257982 34.58926959 85.96583131 34.53149414 93.13671875 C34.5077711 96.27109431 34.51098495 99.40461873 34.51757812 102.5390625 C34.47524995 132.76463764 32.62027698 169.29604915 10.59765625 192.41796875 C0.11606298 202.11557293 -13.34385966 205.38781991 -27.375 204.96484375 C-33.00749764 204.43238668 -37.45567152 203.18603025 -42.1796875 200.078125 C-48.06823646 191.24530156 -47.23290195 180.45952304 -47.19287109 170.29248047 C-47.19694213 168.55030998 -47.20228698 166.80814207 -47.20880127 165.065979 C-47.2224154 160.35950749 -47.21720126 155.65323444 -47.20766401 150.9467597 C-47.20003914 146.00975882 -47.20712063 141.07277429 -47.21182251 136.13577271 C-47.21727082 127.84911057 -47.21011168 119.56252882 -47.19580078 111.27587891 C-47.17946528 101.70660878 -47.18477305 92.13753035 -47.20128 82.56826484 C-47.21490837 74.33699179 -47.21680824 66.10577632 -47.20896399 57.87449563 C-47.2042963 52.96486083 -47.20363796 48.05531605 -47.21357346 43.1456871 C-47.2222609 38.53103692 -47.21618878 33.91663324 -47.19889069 29.30200958 C-47.1949358 27.61218042 -47.19604274 25.92233038 -47.20267868 24.23250961 C-47.21092382 21.91904235 -47.2005379 19.60635625 -47.18563843 17.29293823 C-47.18450735 16.00066755 -47.18337627 14.70839687 -47.18221092 13.37696648 C-46.60009298 7.61575729 -45.29434883 2.57627461 -40.8046875 -1.296875 C-30.6396947 -8.28530755 -10.50575772 -5.09192714 0 0 Z " fill="#FBE5E5" transform="translate(324.8046875,153.359375)"/>
<path d="M0 0 C45.30432498 -0.64362111 92.55075771 -0.15298714 127.71875 32.6171875 C146.79465097 52.54235803 153.16718618 78.21462204 153.24023438 104.97460938 C153.24988949 107.10066646 153.28099164 109.22573277 153.3125 111.3515625 C153.41160289 124.10181723 151.76417413 136.60127574 147.3125 148.625 C146.93121948 149.67228271 146.93121948 149.67228271 146.54223633 150.74072266 C142.07492435 162.51538573 135.42760119 172.64245661 127 182 C126.31421875 182.76828125 125.6284375 183.5365625 124.921875 184.328125 C105.9781499 204.39444122 77.08739503 215.94894071 50 219 C48.85930054 219.13631836 48.85930054 219.13631836 47.69555664 219.27539062 C36.54175515 220.40097406 25.32143278 220.15061971 14.125 220.125 C13.01948792 220.12411377 11.91397583 220.12322754 10.77496338 220.12231445 C-6.83468618 220.10572114 -24.40816918 219.82372707 -42 219 C-38.68103474 216.78735649 -35.2037695 215.11107678 -31.625 213.375 C-25.04500811 210.16203738 -18.93296813 206.56512134 -12.8671875 202.46875 C-9.64034437 200.81576224 -7.57535277 200.70293805 -4 201 C-0.74288723 206.77874846 0.69343615 211.37822074 1 218 C3.31 218.33 5.62 218.66 8 219 C7.505 208.605 7.505 208.605 7 198 C7.33 198 7.66 198 8 198 C8.17015625 198.67546875 8.3403125 199.3509375 8.515625 200.046875 C10.21334188 207.01085598 10.21334188 207.01085598 15 212 C27.91465464 216.87345458 41.68825856 214.16594902 54 209 C67.98301849 201.70290161 75.04474588 188.48771451 79.6328125 173.95703125 C86.02607572 152.81934056 87.20014348 132.1703911 87.24023438 110.21728516 C87.24989707 107.03390939 87.28099755 103.85119284 87.3125 100.66796875 C87.45675546 72.7832135 84.53641422 40.76516736 65 19 C54.53921788 9.65317804 42.22602642 6.84774464 28.5625 6.6875 C27.74201172 6.65849609 26.92152344 6.62949219 26.07617188 6.59960938 C20.1903002 6.53854287 16.82143315 7.58377729 12 11 C10.1375562 13.40858714 10.1375562 13.40858714 9 16 C8.3352678 17.33429881 7.66892368 18.66779756 7 20 C6.89650183 13.58311325 7.25492456 7.37305598 8 1 C5.36 1 2.72 1 0 1 C0 0.67 0 0.34 0 0 Z " fill="#F34545" transform="translate(271,143)"/>
<path d="M0 0 C3.7842367 3.1705767 4.79060918 7.37182754 6.3125 11.9375 C6.41140968 14.28847592 6.44755009 16.6422203 6.45294189 18.99526978 C6.45591302 19.71835528 6.45888414 20.44144078 6.4619453 21.18643796 C6.47063562 23.61600284 6.47214084 26.04551846 6.47363281 28.47509766 C6.47826087 30.21461085 6.48328551 31.95412304 6.48867798 33.69363403 C6.50180797 38.42531435 6.50824848 43.15698047 6.51268864 47.88867617 C6.5156193 50.84581347 6.51972417 53.80294689 6.52419281 56.76008224 C6.53787132 66.01480263 6.5475354 75.26951415 6.5513947 84.52424395 C6.55587196 95.20207539 6.57340295 105.8797786 6.6023953 116.55757105 C6.62403168 124.81333287 6.63410008 133.06905867 6.63543582 141.32484853 C6.63648274 146.25419948 6.64236618 151.18342995 6.66025543 156.11275101 C6.67676919 160.75354924 6.67887558 165.39413687 6.67011642 170.03495407 C6.66934773 171.73404251 6.67366656 173.43314242 6.68357468 175.13220215 C6.78372506 193.3835399 6.78372506 193.3835399 1.75 201.4375 C-2.29914006 203.9292785 -5.9760331 204.40929298 -10.6875 203.9375 C-24.28408153 199.39351892 -32.60798449 190.18368473 -38.83251953 177.71484375 C-50.42852579 153.60892554 -52.90778419 127.06046569 -53 100.6875 C-53.00261841 99.95815247 -53.00523682 99.22880493 -53.00793457 98.47735596 C-53.01885245 69.75006929 -49.2336726 31.87500528 -28.73828125 9.7890625 C-21.21124915 2.9932278 -10.40126683 -4.11212875 0 0 Z " fill="#FBE4E4" transform="translate(208.6875,152.0625)"/>
<path d="M0 0 C1.32 0 2.64 0 4 0 C4 7.59 4 15.18 4 23 C-7.53557692 23.37211538 -7.53557692 23.37211538 -9.88671875 21.48828125 C-10.25410156 20.99714844 -10.62148437 20.50601562 -11 20 C-13.6905528 21.22007944 -13.6905528 21.22007944 -16 23 C-17.9609375 23.203125 -17.9609375 23.203125 -20.375 23.25 C-21.16648438 23.27578125 -21.95796875 23.3015625 -22.7734375 23.328125 C-25 23 -25 23 -26.76171875 21.734375 C-28.63954425 19.10423455 -28.4824442 17.01873524 -28.34375 13.875 C-28 12 -28 12 -26.4375 10 C-23.08597404 8.62501499 -20.59034613 8.61532006 -17 9 C-14.5625 10.375 -14.5625 10.375 -13 12 C-13 12.66 -13 13.32 -13 14 C-12.34 14 -11.68 14 -11 14 C-10.5359375 13.0409375 -10.5359375 13.0409375 -10.0625 12.0625 C-9 10 -9 10 -8 9 C-2.47058824 8.76470588 -2.47058824 8.76470588 0 10 C0 6.7 0 3.4 0 0 Z " fill="#EE0706" transform="translate(260,378)"/>
<path d="M0 0 C13.53 0 27.06 0 41 0 C41 7.9393795 40.94559455 11.71549884 36.625 18 C35 19 35 19 32.76953125 18.8203125 C29.2659965 17.78259417 26.9926239 16.05504174 24.0625 13.875 C18.28183406 9.6853199 12.33865717 6.47106964 5.8984375 3.41015625 C3 2 3 2 0 0 Z " fill="#F24242" transform="translate(230,144)"/>
<path d="M0 0 C0 4.62 0 9.24 0 14 C-12.44494982 14.36965197 -12.44494982 14.36965197 -14.89453125 12.73828125 C-16.21474859 10.66232112 -16.40282372 9.4484873 -16.375 7 C-16.38273438 6.319375 -16.39046875 5.63875 -16.3984375 4.9375 C-14.83726578 -2.65408014 -5.83607565 -0.17334878 0 0 Z " fill="#EE1110" transform="translate(210,387)"/>
<path d="M0 0 C1.65 0 3.3 0 5 0 C5.33 3.96 5.66 7.92 6 12 C6.99 11.01 7.98 10.02 9 9 C12.1875 8.8125 12.1875 8.8125 15 9 C13.66666667 11.66666667 12.33333333 14.33333333 11 17 C12.65 18.98 14.3 20.96 16 23 C13.25 23.25 13.25 23.25 10 23 C7.625 21 7.625 21 6 19 C5.67 20.32 5.34 21.64 5 23 C3.35 23 1.7 23 0 23 C0 15.41 0 7.82 0 0 Z " fill="#EE1110" transform="translate(295,378)"/>
<path d="M0 0 C2.4375 1.375 2.4375 1.375 4 3 C4 3.66 4 4.32 4 5 C4.66 5 5.32 5 6 5 C6.3125 7.25 6.3125 7.25 6 10 C3.82311837 12.59821356 2.15159557 13.81848756 -1.23046875 14.3515625 C-7.2253201 14.56671214 -7.2253201 14.56671214 -9.74609375 12.72265625 C-11.65099851 10.10563756 -11.48254492 8.02101809 -11.34375 4.875 C-11 3 -11 3 -9.4375 1 C-6.08597404 -0.37498501 -3.59034613 -0.38467994 0 0 Z " fill="#EF1211" transform="translate(243,387)"/>
<path d="M0 0 C2.4375 1.75 2.4375 1.75 4 4 C4 5.32 4 6.64 4 8 C-0.455 8.495 -0.455 8.495 -5 9 C-1.25308553 10.39770584 -1.25308553 10.39770584 1 9 C1.66 9.33 2.32 9.66 3 10 C2.34 11.32 1.68 12.64 1 14 C-6.25581395 14.48372093 -6.25581395 14.48372093 -9.5 12.375 C-11.45562482 9.27859404 -11.60024477 7.60146865 -11 4 C-8.05899778 -0.47032338 -5.13105401 -0.73300772 0 0 Z " fill="#EF1B1A" transform="translate(277,387)"/>
<path d="M0 0 C1.65 0 3.3 0 5 0 C5 7.59 5 15.18 5 23 C3.35 23 1.7 23 0 23 C0 15.41 0 7.82 0 0 Z " fill="#EF1110" transform="translate(212,378)"/>
<path d="M0 0 C3 0.25 3 0.25 5 2.25 C4.67 2.91 4.34 3.57 4 4.25 C2.35 3.92 0.7 3.59 -1 3.25 C-1 3.91 -1 4.57 -1 5.25 C0.98 5.91 2.96 6.57 5 7.25 C5.125 9.625 5.125 9.625 5 12.25 C3 14.25 3 14.25 1.0546875 14.4453125 C-0.96354167 14.38020833 -2.98177083 14.31510417 -5 14.25 C-5 12.93 -5 11.61 -5 10.25 C-3.35 10.58 -1.7 10.91 0 11.25 C0 10.59 0 9.93 0 9.25 C-2.475 8.26 -2.475 8.26 -5 7.25 C-5.125 4.875 -5.125 4.875 -5 2.25 C-3 0.25 -3 0.25 0 0 Z " fill="#EE0B0A" transform="translate(288,386.75)"/>
<path d="M0 0 C0 1.32 0 2.64 0 4 C-1.65 4.33 -3.3 4.66 -5 5 C-5 6.32 -5 7.64 -5 9 C-3.35 9.33 -1.7 9.66 0 10 C0.33 11.32 0.66 12.64 1 14 C-6.21153846 14.48076923 -6.21153846 14.48076923 -9.5625 12.4375 C-11 10 -11 10 -11 6.4375 C-10 3 -10 3 -8.3125 1.0625 C-5.40913094 -0.27148038 -3.15869424 -0.21536552 0 0 Z " fill="#EE0E0D" transform="translate(192,387)"/>
<path d="M0 0 C0.33 1.32 0.66 2.64 1 4 C-0.65 4.33 -2.3 4.66 -4 5 C-4 6.32 -4 7.64 -4 9 C-2.35 9.33 -0.7 9.66 1 10 C1 11.32 1 12.64 1 14 C-5.27586207 14.48275862 -5.27586207 14.48275862 -8.4375 12.375 C-10.47161336 9.28314769 -10.60605429 7.63632575 -10 4 C-7.16463433 -0.14399597 -4.86205069 -0.44200461 0 0 Z " fill="#EE0D0C" transform="translate(229,387)"/>
<path d="M0 0 C0.66 0 1.32 0 2 0 C2 0.66 2 1.32 2 2 C2.66 2.33 3.32 2.66 4 3 C4 5.97 4 8.94 4 12 C3.34 12 2.68 12 2 12 C1.67 12.66 1.34 13.32 1 14 C1 12.68 1 11.36 1 10 C-0.65 10 -2.3 10 -4 10 C-4.38218767 8.34385343 -4.71395102 6.67542976 -5 5 C-4 4 -4 4 -1.4375 3.9375 C-0.2309375 3.9684375 -0.2309375 3.9684375 1 4 C0.67 2.68 0.34 1.36 0 0 Z " fill="#FAD1D1" transform="translate(229,387)"/>
<path d="M0 0 C0.2475 0.61875 0.495 1.2375 0.75 1.875 C2.20628639 4.35068687 3.37812506 4.95125002 6 6 C6 6.66 6 7.32 6 8 C5.21625 7.95875 4.4325 7.9175 3.625 7.875 C0.83883881 7.71271266 0.83883881 7.71271266 -1 10 C-1.33 9.01 -1.66 8.02 -2 7 C-4.31 7.33 -6.62 7.66 -9 8 C-9.66 7.01 -10.32 6.02 -11 5 C-7.7 5 -4.4 5 -1 5 C-0.67 3.35 -0.34 1.7 0 0 Z " fill="#FACDCD" transform="translate(282,390)"/>
<path d="M0 0 C0.125 3.375 0.125 3.375 0 7 C-0.66 7.66 -1.32 8.32 -2 9 C-2 8.34 -2 7.68 -2 7 C-3.65 7 -5.3 7 -7 7 C-7.33 5.35 -7.66 3.7 -8 2 C-2.25 0 -2.25 0 0 0 Z " fill="#FAD1D1" transform="translate(194,390)"/>
<path d="M0 0 C1.65 0.33 3.3 0.66 5 1 C4.67 2.65 4.34 4.3 4 6 C2.35 5.67 0.7 5.34 -1 5 C-0.67 3.35 -0.34 1.7 0 0 Z " fill="#FBD5D5" transform="translate(200,391)"/>
<path d="M0 0 C2.0625 0.4375 2.0625 0.4375 4 1 C4.5625 2.9375 4.5625 2.9375 5 5 C4 6 4 6 1.4375 6.0625 C0.2309375 6.0315625 0.2309375 6.0315625 -1 6 C-1.042721 4.33388095 -1.04063832 2.66617115 -1 1 C-0.67 0.67 -0.34 0.34 0 0 Z " fill="#FBD4D4" transform="translate(255,391)"/>
<path d="M0 0 C2.0625 0.4375 2.0625 0.4375 4 1 C4.5625 2.9375 4.5625 2.9375 5 5 C4 6 4 6 1.4375 6.0625 C0.2309375 6.0315625 0.2309375 6.0315625 -1 6 C-1.042721 4.33388095 -1.04063832 2.66617115 -1 1 C-0.67 0.67 -0.34 0.34 0 0 Z " fill="#FBD4D4" transform="translate(238,391)"/>
<path d="M0 0 C1.32 0.66 2.64 1.32 4 2 C3.67 3.32 3.34 4.64 3 6 C1.35 5.67 -0.3 5.34 -2 5 C-1.125 1.125 -1.125 1.125 0 0 Z " fill="#EE0F0E" transform="translate(314,395)"/>
</svg>
